<svg xmlns="http://www.w3.org/2000/svg" width="1024" height="1024" viewBox="0 0 1024 1024">
  <defs>
    <clipPath id="c">
      <rect width="1024" height="1024" rx="230" ry="230"/>
    </clipPath>
  </defs>
  <g clip-path="url(#c)">
    <g>
<path d="M 254.00 707.26 L 254.00 728.00 L 91.00 728.00 L 91.00 707.35 L 99.25 706.11 C129.20,701.61 141.27,695.31 148.04,680.65 C155.45,664.61 156.21,648.64 155.74,519.50 C155.45,439.92 155.07,415.36 154.08,411.50 C150.27,396.67 141.81,385.98 128.80,379.55 C122.65,376.51 118.48,375.32 107.81,373.58 L 94.50 371.40 L 94.50 351.50 L 268.22 351.50 L 269.57 355.00 C270.30,356.92 279.89,382.58 290.86,412.00 C301.84,441.42 319.88,489.80 330.97,519.50 L 355.69 585.75 C358.20,592.49 360.54,598.00 360.88,598.00 C361.52,597.99 363.94,591.90 385.53,536.00 C397.81,504.20 405.99,483.11 429.57,422.50 C438.81,398.74 442.15,388.76 445.61,374.50 C448.02,364.60 450.22,355.26 450.51,353.75 L 451.04 351.00 L 618.00 351.00 L 618.00 371.81 L 612.75 372.46 C604.10,373.54 590.83,376.03 585.50,377.58 C574.88,380.67 569.44,385.55 566.75,394.40 C564.88,400.54 564.93,677.63 566.80,683.81 C569.35,692.23 578.38,699.29 590.50,702.35 C593.80,703.18 601.56,704.65 607.75,705.62 L 619.00 707.39 L 619.00 728.00 L 414.00 728.00 L 414.00 707.28 L 420.75 706.60 C445.35,704.14 455.92,701.33 462.86,695.38 C468.11,690.89 470.62,686.05 471.95,677.87 C473.16,670.44 473.45,394.00 472.25,394.00 C471.84,394.01 469.98,397.94 468.11,402.75 C466.25,407.56 460.31,422.75 454.92,436.50 C449.53,450.25 439.68,475.45 433.03,492.50 C426.38,509.55 416.26,535.42 410.54,550.00 C400.43,575.74 383.29,619.52 358.86,682.00 C352.29,698.78 346.12,714.53 345.14,717.00 L 343.35 721.50 L 309.46 722.05 L 305.11 708.77 C301.13,696.62 286.88,657.35 264.02,595.50 C259.14,582.30 249.44,555.97 242.46,537.00 C235.48,518.03 224.46,488.10 217.97,470.50 C211.49,452.90 202.30,427.98 197.57,415.12 C192.83,402.25 188.51,391.00 187.97,390.12 C187.33,389.06 187.12,432.70 187.36,516.50 C187.68,629.53 187.91,645.61 189.36,654.00 C191.08,663.92 194.08,674.32 196.68,679.36 C199.37,684.56 207.29,692.12 213.15,695.07 C219.40,698.23 237.98,704.12 247.75,706.03 Z" fill="rgb(15,15,15)"/>
<path d="M 800.79 735.95 C778.66,738.35 755.80,736.32 733.91,730.02 C681.59,714.96 652.94,670.07 657.82,610.78 C659.68,588.16 664.23,571.73 674.49,550.50 C686.37,525.95 705.05,504.52 728.50,488.55 C737.13,482.66 760.86,471.04 771.11,467.67 C790.74,461.22 819.09,457.41 840.00,458.40 C878.36,460.23 901.11,467.16 915.34,481.33 C925.95,491.90 930.00,502.32 930.00,519.05 C930.00,539.08 924.04,552.94 908.90,568.13 C891.85,585.23 875.66,593.02 831.50,605.35 C815.86,609.71 789.42,614.48 760.75,618.11 C755.36,618.79 750.96,619.83 750.91,620.42 C750.34,627.06 753.29,647.47 756.21,656.99 C762.39,677.19 774.80,689.68 793.46,694.47 C805.94,697.67 831.42,695.82 846.78,690.58 C867.18,683.63 884.80,670.17 901.74,648.60 C903.72,646.08 904.19,645.91 905.74,647.12 C914.35,653.88 923.00,661.51 923.00,662.34 C923.00,664.58 911.36,678.36 901.06,688.31 C873.73,714.71 837.39,731.98 800.79,735.95 ZM 751.68 596.22 C752.17,597.10 757.65,596.49 773.00,593.86 C800.34,589.18 815.95,582.72 827.27,571.42 C839.07,559.63 843.36,547.67 843.36,526.50 C843.36,506.73 839.72,495.69 830.30,486.88 C822.41,479.50 810.72,478.04 800.65,483.18 C782.42,492.48 763.56,527.58 755.55,567.14 C752.95,579.98 750.96,594.95 751.68,596.22 Z" fill="rgb(72,98,224)"/>
<path d="M 0.00 512.00 L 0.00 0.00 L 512.00 0.00 L 1024.00 0.00 L 1024.00 512.00 L 1024.00 1024.00 L 512.00 1024.00 L 0.00 1024.00 L 0.00 512.00 ZM 800.79 735.95 C837.39,731.98 873.73,714.71 901.06,688.31 C911.36,678.36 923.00,664.58 923.00,662.34 C923.00,661.51 914.35,653.88 905.74,647.12 C904.19,645.91 903.72,646.08 901.74,648.60 C884.80,670.17 867.18,683.63 846.78,690.58 C831.42,695.82 805.94,697.67 793.46,694.47 C774.80,689.68 762.39,677.19 756.21,656.99 C753.29,647.47 750.34,627.06 750.91,620.42 C750.96,619.83 755.36,618.79 760.75,618.11 C789.42,614.48 815.86,609.71 831.50,605.35 C875.66,593.02 891.85,585.23 908.90,568.13 C924.04,552.94 930.00,539.08 930.00,519.05 C930.00,502.32 925.95,491.90 915.34,481.33 C901.11,467.16 878.36,460.23 840.00,458.40 C819.09,457.41 790.74,461.22 771.11,467.67 C760.86,471.04 737.13,482.66 728.50,488.55 C705.05,504.52 686.37,525.95 674.49,550.50 C664.23,571.73 659.68,588.16 657.82,610.78 C652.94,670.07 681.59,714.96 733.91,730.02 C755.80,736.32 778.66,738.35 800.79,735.95 ZM 254.00 717.63 L 254.00 707.26 L 247.75 706.03 C237.98,704.12 219.40,698.23 213.15,695.07 C207.29,692.12 199.37,684.56 196.68,679.36 C194.08,674.32 191.08,663.92 189.36,654.00 C187.91,645.61 187.68,629.53 187.36,516.50 C187.12,432.70 187.33,389.06 187.97,390.12 C188.51,391.00 192.83,402.25 197.57,415.12 C202.30,427.98 211.49,452.90 217.97,470.50 C224.46,488.10 235.48,518.03 242.46,537.00 C249.44,555.97 259.14,582.30 264.02,595.50 C286.88,657.35 301.13,696.62 305.11,708.77 L 309.46 722.05 L 326.41 721.77 L 343.35 721.50 L 345.14 717.00 C346.12,714.53 352.29,698.78 358.86,682.00 C383.29,619.52 400.43,575.74 410.54,550.00 C416.26,535.42 426.38,509.55 433.03,492.50 C439.68,475.45 449.53,450.25 454.92,436.50 C460.31,422.75 466.25,407.56 468.11,402.75 C469.98,397.94 471.84,394.01 472.25,394.00 C473.45,394.00 473.16,670.44 471.95,677.87 C470.62,686.05 468.11,690.89 462.86,695.38 C455.92,701.33 445.35,704.14 420.75,706.60 L 414.00 707.28 L 414.00 717.64 L 414.00 728.00 L 516.50 728.00 L 619.00 728.00 L 619.00 717.69 L 619.00 707.39 L 607.75 705.62 C601.56,704.65 593.80,703.18 590.50,702.35 C578.38,699.29 569.35,692.23 566.80,683.81 C564.93,677.63 564.88,400.54 566.75,394.40 C569.44,385.55 574.88,380.67 585.50,377.58 C590.83,376.03 604.10,373.54 612.75,372.46 L 618.00 371.81 L 618.00 361.41 L 618.00 351.00 L 534.52 351.00 L 451.04 351.00 L 450.51 353.75 C450.22,355.26 448.02,364.60 445.61,374.50 C442.15,388.76 438.81,398.74 429.57,422.50 C405.99,483.11 397.81,504.20 385.53,536.00 C363.94,591.90 361.52,597.99 360.88,598.00 C360.54,598.00 358.20,592.49 355.69,585.75 C353.18,579.01 342.05,549.20 330.97,519.50 C319.88,489.80 301.84,441.42 290.86,412.00 C279.89,382.58 270.30,356.92 269.57,355.00 L 268.22 351.50 L 181.36 351.50 L 94.50 351.50 L 94.50 361.45 L 94.50 371.40 L 107.81 373.58 C118.48,375.32 122.65,376.51 128.80,379.55 C141.81,385.98 150.27,396.67 154.08,411.50 C155.07,415.36 155.45,439.92 155.74,519.50 C156.21,648.64 155.45,664.61 148.04,680.65 C141.27,695.31 129.20,701.61 99.25,706.11 L 91.00 707.35 L 91.00 717.67 L 91.00 728.00 L 172.50 728.00 L 254.00 728.00 L 254.00 717.63 ZM 751.68 596.22 C750.96,594.95 752.95,579.98 755.55,567.14 C763.56,527.58 782.42,492.48 800.65,483.18 C810.72,478.04 822.41,479.50 830.30,486.88 C839.72,495.69 843.36,506.73 843.36,526.50 C843.36,547.67 839.07,559.63 827.27,571.42 C815.95,582.72 800.34,589.18 773.00,593.86 C757.65,596.49 752.17,597.10 751.68,596.22 Z" fill="rgb(248,249,253)"/>
</g>
  </g>
  <rect width="1024" height="1024" rx="230" ry="230" fill="none" stroke="rgb(220,222,230)" stroke-width="8"/>
</svg>